<mxfile host="app.diagrams.net" modified="2023-05-25T18:10:27.966Z" agent="Mozilla/5.0 (Windows NT 10.0; Win64; x64; rv:109.0) Gecko/20100101 Firefox/113.0" etag="ra1zXieUwNQG8Oc4XmcF" version="21.3.4" type="google">
  <diagram name="PÃ¡gina-1" id="R2tcZeme0ippITPXkhZb">
    <mxGraphModel grid="1" page="1" gridSize="10" guides="1" tooltips="1" connect="1" arrows="1" fold="1" pageScale="1" pageWidth="827" pageHeight="1169" math="0" shadow="0">
      <root>
        <mxCell id="0" />
        <mxCell id="1" parent="0" />
        <mxCell id="YbUhoS-lOjHTXXZ6Jtig-2" value="" style="rounded=0;whiteSpace=wrap;html=1;" vertex="1" parent="1">
          <mxGeometry x="1080" y="1090" width="110" height="50" as="geometry" />
        </mxCell>
        <mxCell id="0CJryvqd-v2eysI860uN-1" value="" style="rounded=0;whiteSpace=wrap;html=1;" vertex="1" parent="1">
          <mxGeometry x="660" y="960" width="110" height="50" as="geometry" />
        </mxCell>
        <mxCell id="0CJryvqd-v2eysI860uN-2" value="" style="rounded=0;whiteSpace=wrap;html=1;" vertex="1" parent="1">
          <mxGeometry x="690" y="771" width="110" height="50" as="geometry" />
        </mxCell>
        <mxCell id="0CJryvqd-v2eysI860uN-3" value=":&lt;u&gt;Sistema&lt;/u&gt;" style="rounded=0;whiteSpace=wrap;html=1;" vertex="1" parent="1">
          <mxGeometry x="170" y="761" width="110" height="50" as="geometry" />
        </mxCell>
        <mxCell id="0CJryvqd-v2eysI860uN-4" value="" style="endArrow=none;html=1;rounded=0;entryX=0;entryY=0.5;entryDx=0;entryDy=0;" edge="1" parent="1" target="0CJryvqd-v2eysI860uN-3">
          <mxGeometry width="50" height="50" relative="1" as="geometry">
            <mxPoint x="-120" y="786" as="sourcePoint" />
            <mxPoint x="400" y="951" as="targetPoint" />
          </mxGeometry>
        </mxCell>
        <mxCell id="0CJryvqd-v2eysI860uN-5" value="" style="endArrow=classic;html=1;rounded=0;" edge="1" parent="1">
          <mxGeometry width="50" height="50" relative="1" as="geometry">
            <mxPoint x="20" y="760" as="sourcePoint" />
            <mxPoint x="70" y="760" as="targetPoint" />
          </mxGeometry>
        </mxCell>
        <mxCell id="0CJryvqd-v2eysI860uN-6" value="elegirOferta(numero: String): Set &amp;lt;DtEstudiante&amp;gt;" style="text;html=1;strokeColor=none;fillColor=none;align=center;verticalAlign=middle;whiteSpace=wrap;rounded=0;" vertex="1" parent="1">
          <mxGeometry x="-140" y="761" width="320" height="30" as="geometry" />
        </mxCell>
        <mxCell id="0CJryvqd-v2eysI860uN-7" value=":&lt;u&gt;Oferta Laboral&lt;/u&gt;" style="rounded=0;whiteSpace=wrap;html=1;" vertex="1" parent="1">
          <mxGeometry x="680" y="761" width="110" height="50" as="geometry" />
        </mxCell>
        <mxCell id="0CJryvqd-v2eysI860uN-8" value="" style="endArrow=none;html=1;rounded=0;entryX=0;entryY=0.5;entryDx=0;entryDy=0;exitX=1;exitY=0.5;exitDx=0;exitDy=0;" edge="1" parent="1" source="0CJryvqd-v2eysI860uN-3" target="0CJryvqd-v2eysI860uN-7">
          <mxGeometry width="50" height="50" relative="1" as="geometry">
            <mxPoint x="350" y="750" as="sourcePoint" />
            <mxPoint x="570" y="790" as="targetPoint" />
          </mxGeometry>
        </mxCell>
        <mxCell id="0CJryvqd-v2eysI860uN-9" value="1: o := find(numero: String)" style="text;html=1;strokeColor=none;fillColor=none;align=center;verticalAlign=middle;whiteSpace=wrap;rounded=0;" vertex="1" parent="1">
          <mxGeometry x="290" y="761" width="360" height="30" as="geometry" />
        </mxCell>
        <mxCell id="0CJryvqd-v2eysI860uN-10" value="" style="endArrow=none;html=1;rounded=0;entryX=0.5;entryY=1;entryDx=0;entryDy=0;exitX=0;exitY=0.5;exitDx=0;exitDy=0;" edge="1" parent="1" source="0CJryvqd-v2eysI860uN-16" target="0CJryvqd-v2eysI860uN-3">
          <mxGeometry width="50" height="50" relative="1" as="geometry">
            <mxPoint x="260" y="1120" as="sourcePoint" />
            <mxPoint x="410" y="800" as="targetPoint" />
            <Array as="points">
              <mxPoint x="230" y="1105" />
            </Array>
          </mxGeometry>
        </mxCell>
        <mxCell id="0CJryvqd-v2eysI860uN-11" value="Retorna el set de&lt;br&gt;DtEstudiante con todos los nom" style="shape=note;whiteSpace=wrap;html=1;backgroundOutline=1;darkOpacity=0.05;fillColor=#fff2cc;strokeColor=#d6b656;" vertex="1" parent="1">
          <mxGeometry x="-180" y="835" width="118.5" height="145" as="geometry" />
        </mxCell>
        <mxCell id="0CJryvqd-v2eysI860uN-12" value="" style="endArrow=none;dashed=1;html=1;dashPattern=1 3;strokeWidth=2;rounded=0;entryX=0;entryY=1;entryDx=0;entryDy=0;exitX=0;exitY=0;exitDx=103.5;exitDy=15;exitPerimeter=0;" edge="1" parent="1" source="0CJryvqd-v2eysI860uN-11" target="0CJryvqd-v2eysI860uN-3">
          <mxGeometry width="50" height="50" relative="1" as="geometry">
            <mxPoint x="220" y="720" as="sourcePoint" />
            <mxPoint x="270" y="670" as="targetPoint" />
          </mxGeometry>
        </mxCell>
        <mxCell id="0CJryvqd-v2eysI860uN-13" value=":&lt;u&gt;Estudiante&lt;/u&gt;" style="rounded=0;whiteSpace=wrap;html=1;" vertex="1" parent="1">
          <mxGeometry x="650" y="950" width="110" height="50" as="geometry" />
        </mxCell>
        <mxCell id="0CJryvqd-v2eysI860uN-15" value="2* [for each]: e := next()" style="text;html=1;strokeColor=none;fillColor=none;align=center;verticalAlign=middle;whiteSpace=wrap;rounded=0;" vertex="1" parent="1">
          <mxGeometry x="310" y="950" width="320" height="30" as="geometry" />
        </mxCell>
        <mxCell id="0CJryvqd-v2eysI860uN-16" value="&lt;u&gt;e: Estudiante&lt;/u&gt;" style="rounded=0;whiteSpace=wrap;html=1;" vertex="1" parent="1">
          <mxGeometry x="660" y="1080" width="110" height="50" as="geometry" />
        </mxCell>
        <mxCell id="0CJryvqd-v2eysI860uN-18" value="" style="endArrow=classic;html=1;rounded=0;" edge="1" parent="1">
          <mxGeometry width="50" height="50" relative="1" as="geometry">
            <mxPoint x="440" y="950" as="sourcePoint" />
            <mxPoint x="500" y="950" as="targetPoint" />
          </mxGeometry>
        </mxCell>
        <mxCell id="0CJryvqd-v2eysI860uN-19" value="" style="endArrow=classic;html=1;rounded=0;" edge="1" parent="1">
          <mxGeometry width="50" height="50" relative="1" as="geometry">
            <mxPoint x="358.5" y="1060" as="sourcePoint" />
            <mxPoint x="430" y="1060" as="targetPoint" />
          </mxGeometry>
        </mxCell>
        <mxCell id="0CJryvqd-v2eysI860uN-20" value="Retorna i != NULL" style="shape=note;whiteSpace=wrap;html=1;backgroundOutline=1;darkOpacity=0.05;fillColor=#fff2cc;strokeColor=#d6b656;" vertex="1" parent="1">
          <mxGeometry x="551.5" y="1180" width="108.5" height="90" as="geometry" />
        </mxCell>
        <mxCell id="0CJryvqd-v2eysI860uN-21" value="" style="endArrow=none;dashed=1;html=1;dashPattern=1 3;strokeWidth=2;rounded=0;exitX=0;exitY=0;exitDx=93.5;exitDy=15;exitPerimeter=0;entryX=0;entryY=1;entryDx=0;entryDy=0;" edge="1" parent="1" source="0CJryvqd-v2eysI860uN-20" target="0CJryvqd-v2eysI860uN-16">
          <mxGeometry width="50" height="50" relative="1" as="geometry">
            <mxPoint x="100" y="1039" as="sourcePoint" />
            <mxPoint x="650" y="1130" as="targetPoint" />
          </mxGeometry>
        </mxCell>
        <mxCell id="0CJryvqd-v2eysI860uN-22" value="4* [!ok]: nom := listarEstudiante(): DtEstudiante" style="text;html=1;strokeColor=none;fillColor=none;align=center;verticalAlign=middle;whiteSpace=wrap;rounded=0;" vertex="1" parent="1">
          <mxGeometry x="157" y="1110" width="473" height="30" as="geometry" />
        </mxCell>
        <mxCell id="0CJryvqd-v2eysI860uN-23" value="" style="endArrow=none;html=1;rounded=0;entryX=0.8;entryY=0.964;entryDx=0;entryDy=0;entryPerimeter=0;exitX=0;exitY=0.5;exitDx=0;exitDy=0;" edge="1" parent="1" source="0CJryvqd-v2eysI860uN-13" target="0CJryvqd-v2eysI860uN-3">
          <mxGeometry width="50" height="50" relative="1" as="geometry">
            <mxPoint x="480" y="1010" as="sourcePoint" />
            <mxPoint x="267" y="828" as="targetPoint" />
            <Array as="points">
              <mxPoint x="260" y="975" />
            </Array>
          </mxGeometry>
        </mxCell>
        <mxCell id="0CJryvqd-v2eysI860uN-24" value="El sistema recuerda la instancia o de Oferta Laboral" style="shape=note;whiteSpace=wrap;html=1;backgroundOutline=1;darkOpacity=0.05;fillColor=#fff2cc;strokeColor=#d6b656;" vertex="1" parent="1">
          <mxGeometry x="30" y="845" width="97" height="135" as="geometry" />
        </mxCell>
        <mxCell id="0CJryvqd-v2eysI860uN-25" value="" style="endArrow=none;dashed=1;html=1;dashPattern=1 3;strokeWidth=2;rounded=0;entryX=0;entryY=1;entryDx=0;entryDy=0;exitX=0;exitY=0;exitDx=82;exitDy=15;exitPerimeter=0;" edge="1" parent="1" source="0CJryvqd-v2eysI860uN-24" target="0CJryvqd-v2eysI860uN-3">
          <mxGeometry width="50" height="50" relative="1" as="geometry">
            <mxPoint x="500" y="1060" as="sourcePoint" />
            <mxPoint x="550" y="1010" as="targetPoint" />
          </mxGeometry>
        </mxCell>
        <mxCell id="YbUhoS-lOjHTXXZ6Jtig-1" value=":&lt;u&gt;Postulacion&lt;/u&gt;" style="rounded=0;whiteSpace=wrap;html=1;" vertex="1" parent="1">
          <mxGeometry x="1070" y="1080" width="110" height="50" as="geometry" />
        </mxCell>
        <mxCell id="YbUhoS-lOjHTXXZ6Jtig-3" value="" style="endArrow=none;html=1;rounded=0;entryX=0;entryY=0.5;entryDx=0;entryDy=0;exitX=1;exitY=0.5;exitDx=0;exitDy=0;" edge="1" parent="1" source="0CJryvqd-v2eysI860uN-16" target="YbUhoS-lOjHTXXZ6Jtig-1">
          <mxGeometry width="50" height="50" relative="1" as="geometry">
            <mxPoint x="810" y="1120" as="sourcePoint" />
            <mxPoint x="1040" y="1100" as="targetPoint" />
          </mxGeometry>
        </mxCell>
        <mxCell id="YbUhoS-lOjHTXXZ6Jtig-4" value="3*: ok := estaVinculado(numero): Bool" style="text;html=1;strokeColor=none;fillColor=none;align=center;verticalAlign=middle;whiteSpace=wrap;rounded=0;" vertex="1" parent="1">
          <mxGeometry x="238.5" y="1070" width="310" height="30" as="geometry" />
        </mxCell>
        <mxCell id="YbUhoS-lOjHTXXZ6Jtig-7" value="3*.1: p := find(numero)" style="text;html=1;strokeColor=none;fillColor=none;align=center;verticalAlign=middle;whiteSpace=wrap;rounded=0;" vertex="1" parent="1">
          <mxGeometry x="810" y="1080" width="230" height="30" as="geometry" />
        </mxCell>
        <mxCell id="YbUhoS-lOjHTXXZ6Jtig-8" value="" style="endArrow=classic;html=1;rounded=0;" edge="1" parent="1">
          <mxGeometry width="50" height="50" relative="1" as="geometry">
            <mxPoint x="870" y="1079.17" as="sourcePoint" />
            <mxPoint x="970" y="1079.17" as="targetPoint" />
          </mxGeometry>
        </mxCell>
        <mxCell id="YbUhoS-lOjHTXXZ6Jtig-18" value="ok se inicia en false" style="shape=note;whiteSpace=wrap;html=1;backgroundOutline=1;darkOpacity=0.05;fillColor=#fff2cc;strokeColor=#d6b656;" vertex="1" parent="1">
          <mxGeometry x="260" y="990" width="180" height="40" as="geometry" />
        </mxCell>
        <mxCell id="YbUhoS-lOjHTXXZ6Jtig-19" value="" style="endArrow=none;dashed=1;html=1;dashPattern=1 3;strokeWidth=2;rounded=0;exitX=0.156;exitY=0;exitDx=0;exitDy=0;entryX=0;entryY=1;entryDx=0;entryDy=0;entryPerimeter=0;exitPerimeter=0;" edge="1" parent="1" source="YbUhoS-lOjHTXXZ6Jtig-4" target="YbUhoS-lOjHTXXZ6Jtig-18">
          <mxGeometry width="50" height="50" relative="1" as="geometry">
            <mxPoint x="670" y="1080" as="sourcePoint" />
            <mxPoint x="720" y="1030" as="targetPoint" />
          </mxGeometry>
        </mxCell>
        <mxCell id="MBKSNao2teRLQ10INvY0-5" value="" style="endArrow=classic;html=1;rounded=0;" edge="1" parent="1">
          <mxGeometry width="50" height="50" relative="1" as="geometry">
            <mxPoint x="353.5" y="1139" as="sourcePoint" />
            <mxPoint x="433.5" y="1139" as="targetPoint" />
          </mxGeometry>
        </mxCell>
        <mxCell id="BESKBxeKAqH2XelFid4t-1" value="listarEstudiante() retorna ci y nombre del estudiante" style="shape=note;whiteSpace=wrap;html=1;backgroundOutline=1;darkOpacity=0.05;fillColor=#fff2cc;strokeColor=#d6b656;" vertex="1" parent="1">
          <mxGeometry x="120" y="1170" width="110" height="135" as="geometry" />
        </mxCell>
        <mxCell id="BESKBxeKAqH2XelFid4t-2" value="" style="endArrow=none;dashed=1;html=1;dashPattern=1 3;strokeWidth=2;rounded=0;entryX=0.222;entryY=0.989;entryDx=0;entryDy=0;entryPerimeter=0;exitX=0;exitY=0;exitDx=95;exitDy=15;exitPerimeter=0;" edge="1" parent="1" source="BESKBxeKAqH2XelFid4t-1" target="0CJryvqd-v2eysI860uN-22">
          <mxGeometry width="50" height="50" relative="1" as="geometry">
            <mxPoint x="70" y="1150" as="sourcePoint" />
            <mxPoint x="170" y="1080" as="targetPoint" />
          </mxGeometry>
        </mxCell>
      </root>
    </mxGraphModel>
  </diagram>
</mxfile>
